<svg version="1.2" xmlns="http://www.w3.org/2000/svg" viewBox="0 0 531 246" width="531" height="246">
	<style>
		.s0 { fill: #ffffff } 
		.s1 { fill: #ef412f } 
	</style>
	<g id="Folder 1 copy">
		<path class="s0" d="m103.53 216.36h-12.07v2q0.05 0.58-0.01 1.15-0.06 0.57-0.21 1.13-0.16 0.55-0.42 1.07-0.26 0.52-0.6 0.98-0.37 0.36-0.81 0.63-0.44 0.27-0.93 0.44-0.49 0.16-1 0.23-0.52 0.06-1.03 0.01-0.67-0.04-1.34-0.17-0.66-0.14-1.29-0.37-0.64-0.23-1.23-0.55-0.6-0.33-1.14-0.73-0.67-0.43-1.29-0.93-0.62-0.5-1.19-1.06-0.56-0.56-1.07-1.17-0.51-0.61-0.96-1.27-0.39-0.51-0.7-1.08-0.31-0.56-0.54-1.16-0.23-0.61-0.36-1.24-0.14-0.63-0.18-1.27-0.05-0.52 0.02-1.04 0.06-0.52 0.23-1.02 0.18-0.5 0.45-0.94 0.28-0.45 0.64-0.83 0.43-0.32 0.9-0.56 0.48-0.24 0.99-0.4 0.51-0.15 1.05-0.2 0.53-0.06 1.06-0.02h23v-10.4h-30.71v-8.39h43.89q0.83 0 1.6 0.32 0.77 0.32 1.36 0.91 0.59 0.59 0.91 1.36 0.32 0.77 0.32 1.6 0 0.83-0.32 1.6-0.32 0.77-0.91 1.37-0.59 0.59-1.36 0.91-0.77 0.32-1.6 0.32h-3v33.82q0 1.01-0.38 1.95-0.39 0.93-1.1 1.65-0.72 0.71-1.65 1.1-0.94 0.39-1.95 0.39-1.01 0-1.95-0.39-0.93-0.39-1.65-1.1-0.71-0.72-1.1-1.65-0.39-0.94-0.39-1.95z"/>
		<path class="s0" d="m162.31 219.7h-12.85v1.19q0.05 0.61-0.01 1.23-0.06 0.61-0.22 1.21-0.17 0.59-0.44 1.15-0.27 0.55-0.63 1.05-0.39 0.39-0.86 0.69-0.46 0.3-0.98 0.49-0.52 0.19-1.06 0.27-0.55 0.07-1.1 0.03-0.64-0.04-1.27-0.18-0.62-0.14-1.22-0.37-0.6-0.24-1.16-0.55-0.56-0.32-1.06-0.72-0.65-0.44-1.26-0.95-0.6-0.5-1.16-1.05-0.56-0.56-1.07-1.16-0.5-0.6-0.95-1.25-0.4-0.51-0.72-1.08-0.31-0.57-0.54-1.18-0.23-0.61-0.37-1.24-0.13-0.64-0.17-1.29-0.04-0.49 0.02-0.98 0.07-0.49 0.24-0.96 0.18-0.46 0.45-0.87 0.27-0.42 0.63-0.76 0.43-0.31 0.91-0.53 0.48-0.23 0.99-0.37 0.51-0.14 1.04-0.2 0.53-0.05 1.06-0.01h0.78v-7.69q0-4.49-1.23-6.35-0.31-0.46-0.73-0.82-0.42-0.37-0.92-0.61-0.5-0.24-1.04-0.35-0.55-0.11-1.1-0.07-0.32-0.03-0.65 0.01-0.32 0.03-0.63 0.12-0.31 0.09-0.6 0.23-0.29 0.15-0.55 0.34-0.18 0.16-0.32 0.35-0.14 0.19-0.24 0.4-0.11 0.21-0.16 0.44-0.06 0.23-0.07 0.47-0.03 0.39 0.05 0.78 0.08 0.38 0.26 0.73 0.18 0.35 0.45 0.63 0.27 0.29 0.61 0.49 0.18 0.1 0.37 0.19 0.19 0.09 0.38 0.17 0.19 0.07 0.39 0.13 0.2 0.06 0.4 0.11 0.61 0.15 1.13 0.51 0.52 0.35 0.88 0.86 0.36 0.51 0.53 1.12 0.16 0.6 0.11 1.23-0.07 0.75-0.43 1.4-0.37 0.66-0.97 1.11-0.61 0.44-1.34 0.61-0.73 0.15-1.47 0-0.82-0.16-1.62-0.41-0.8-0.25-1.56-0.59-0.77-0.34-1.49-0.77-0.72-0.43-1.38-0.94-0.84-0.67-1.49-1.52-0.66-0.85-1.11-1.82-0.44-0.98-0.64-2.03-0.21-1.06-0.16-2.13-0.04-0.98 0.15-1.93 0.19-0.96 0.6-1.84 0.42-0.89 1.03-1.65 0.61-0.76 1.39-1.35 0.92-0.64 1.93-1.13 1.01-0.48 2.09-0.79 1.08-0.31 2.2-0.44 1.11-0.13 2.23-0.07 5.63 0 9 1.93 0.76 0.41 1.45 0.95 0.68 0.53 1.27 1.17 0.59 0.64 1.07 1.36 0.48 0.73 0.83 1.52 0.36 0.97 0.63 1.97 0.27 1.01 0.43 2.03 0.17 1.02 0.23 2.06 0.07 1.03 0.03 2.07v7.8h12.85v-13.73h-3.42q-0.84 0-1.61-0.32-0.77-0.32-1.36-0.91-0.59-0.59-0.91-1.36-0.32-0.77-0.32-1.61 0-0.83 0.32-1.6 0.32-0.77 0.91-1.36 0.6-0.59 1.37-0.91 0.77-0.32 1.6-0.32h20.79v8.39h-7.16v33.81q0 1.02-0.39 1.95-0.39 0.94-1.11 1.66-0.72 0.72-1.66 1.1-0.93 0.39-1.95 0.39-1.01 0-1.95-0.39-0.94-0.39-1.66-1.1-0.71-0.72-1.1-1.66-0.39-0.94-0.39-1.95z"/>
		<path class="s0" d="m202.07 197.57h-7.16v33.81q0 1.02-0.39 1.95-0.39 0.94-1.11 1.66-0.72 0.72-1.66 1.1-0.93 0.39-1.95 0.39-1.01 0-1.95-0.39-0.94-0.39-1.66-1.1-0.71-0.72-1.1-1.66-0.39-0.94-0.39-1.95v-33.81h-6.09v-8.39h23.46z"/>
		<path class="s0" d="m230.74 226.94q-0.61 0.35-1.25 0.66-0.63 0.31-1.28 0.57-0.65 0.27-1.32 0.5-0.67 0.22-1.35 0.4-0.75 0.18-1.51 0.32-0.76 0.13-1.53 0.22-0.77 0.09-1.54 0.12-0.78 0.04-1.55 0.03-7.09 0-11.36-3.64-4.27-3.64-4.27-10.12-0.05-1.42 0.22-2.82 0.28-1.4 0.86-2.69 0.58-1.3 1.43-2.44 0.86-1.14 1.95-2.05 4.45-3.75 11.91-3.75c1.47 0 2.8 0 4 0.1q0.85 0.06 1.62 0.44 0.76 0.38 1.32 1.03 0.55 0.66 0.81 1.47 0.26 0.82 0.18 1.67-0.07 0.81-0.44 1.54-0.37 0.72-0.98 1.26-0.61 0.53-1.38 0.8-0.77 0.27-1.58 0.24-0.84 0-1.78 0-4.01 0-5.94 1.41-0.47 0.33-0.84 0.77-0.37 0.44-0.62 0.96-0.26 0.51-0.37 1.07-0.12 0.57-0.1 1.14-0.04 0.56 0.04 1.11 0.09 0.56 0.3 1.08 0.21 0.52 0.53 0.98 0.32 0.46 0.74 0.83 0.5 0.36 1.06 0.63 0.56 0.28 1.15 0.45 0.6 0.17 1.22 0.23 0.61 0.07 1.23 0.03 1.48 0 2.93-0.31 1.45-0.32 2.8-0.93 1.35-0.61 2.54-1.49 1.19-0.88 2.17-1.99v-19.2h-29.76v-8.39h47.11v8.39h-7.11v33.81q0 1.02-0.39 1.95-0.39 0.94-1.11 1.66-0.72 0.72-1.66 1.1-0.93 0.39-1.95 0.39-1.01 0-1.95-0.39-0.94-0.39-1.66-1.1-0.71-0.72-1.1-1.66-0.39-0.94-0.39-1.95z"/>
		<path class="s0" d="m277.78 216.36h-12.07v2q0.05 0.58-0.01 1.15-0.06 0.57-0.21 1.13-0.16 0.55-0.42 1.07-0.26 0.52-0.6 0.98-0.37 0.36-0.81 0.63-0.44 0.27-0.93 0.44-0.49 0.16-1 0.23-0.52 0.06-1.03 0.01-0.67-0.04-1.34-0.17-0.66-0.14-1.29-0.37-0.64-0.23-1.23-0.55-0.6-0.33-1.14-0.73-0.67-0.43-1.29-0.93-0.62-0.5-1.19-1.06-0.57-0.56-1.08-1.17-0.51-0.61-0.96-1.27-0.39-0.52-0.7-1.09-0.31-0.57-0.54-1.19-0.22-0.61-0.35-1.24-0.13-0.64-0.17-1.29-0.05-0.52 0.02-1.04 0.06-0.52 0.23-1.02 0.18-0.5 0.45-0.94 0.28-0.45 0.64-0.83 0.43-0.32 0.9-0.56 0.48-0.24 0.99-0.4 0.51-0.15 1.05-0.2 0.53-0.06 1.06-0.02h23v-10.4h-30.76v-8.39h48.09v8.39h-7.09v33.82q0 1.01-0.39 1.95-0.39 0.93-1.1 1.65-0.72 0.71-1.65 1.1-0.94 0.39-1.95 0.39-1.01 0-1.95-0.39-0.93-0.39-1.65-1.1-0.71-0.72-1.1-1.65-0.38-0.94-0.38-1.95z"/>
		<path class="s0" d="m313.31 197.57h-3v33.81q0 1.02-0.39 1.95-0.39 0.94-1.11 1.66-0.72 0.72-1.66 1.1-0.93 0.39-1.95 0.39-1.01 0-1.95-0.39-0.94-0.39-1.66-1.1-0.71-0.72-1.1-1.66-0.39-0.94-0.39-1.95v-33.81h-6.1v-8.39h19.27q0.83 0 1.6 0.32 0.77 0.32 1.37 0.91 0.59 0.59 0.91 1.36 0.32 0.77 0.32 1.6 0 0.83-0.32 1.6-0.31 0.77-0.9 1.36-0.58 0.58-1.35 0.91-0.76 0.32-1.59 0.33z"/>
		<path class="s0" d="m56.49 211.31h-6.49c-2.59 0-4.13 0-4.6-0.11q4.15 4.45 4.16 9.46 0.05 1.16-0.17 2.31-0.21 1.14-0.68 2.21-0.47 1.07-1.16 2-0.7 0.94-1.59 1.69-0.99 0.78-2.11 1.38-1.11 0.59-2.32 0.97-1.2 0.39-2.45 0.55-1.26 0.16-2.52 0.1-2.04 0.04-4.03-0.36-2-0.39-3.87-1.2-1.87-0.81-3.52-1.99-1.65-1.19-3.02-2.7-1.33-1.53-2.52-3.17-1.18-1.64-2.22-3.38-1.03-1.74-1.9-3.56-0.88-1.83-1.58-3.73-0.35-0.88-0.34-1.82 0.01-0.95 0.39-1.81 0.38-0.87 1.07-1.52 0.69-0.65 1.57-0.98 0.86-0.32 1.77-0.29 0.91 0.03 1.74 0.4 0.83 0.38 1.46 1.03 0.63 0.66 0.97 1.51 0.49 1.37 1.08 2.7 0.58 1.33 1.25 2.62 0.67 1.29 1.43 2.53 0.75 1.24 1.59 2.43 3.56 4.73 7.72 4.72 0.38 0.02 0.76-0.04 0.38-0.06 0.75-0.19 0.36-0.12 0.69-0.32 0.33-0.2 0.62-0.45 0.27-0.28 0.47-0.6 0.2-0.33 0.33-0.69 0.13-0.36 0.18-0.75 0.05-0.38 0.02-0.76 0-5.21-7.31-9.54l3.23-7.13h21.15v-5.35h-41.59q-0.83 0-1.6-0.32-0.77-0.32-1.36-0.91-0.59-0.6-0.91-1.37-0.32-0.77-0.32-1.6 0-0.83 0.32-1.6 0.32-0.77 0.91-1.36 0.59-0.59 1.36-0.91 0.77-0.32 1.6-0.32h59v8.39h-7.2v33.81q0 1.02-0.39 1.95-0.39 0.94-1.11 1.66-0.72 0.72-1.66 1.1-0.93 0.39-1.95 0.39-1.01 0-1.95-0.39-0.94-0.39-1.66-1.1-0.71-0.72-1.1-1.66-0.39-0.94-0.39-1.95z"/>
		<path class="s0" d="m367.67 211.6h-4.5q-1.08-0.04-2.15-0.01-1.08 0.04-2.15 0.15-1.08 0.12-2.14 0.31-1.06 0.19-2.1 0.46-0.93 0.25-1.77 0.72-0.84 0.48-1.53 1.15-0.69 0.67-1.2 1.49-0.5 0.82-0.78 1.74-0.28 1.09-0.25 2.21 0.04 1.12 0.39 2.19 0.36 1.06 1 1.98 0.65 0.92 1.53 1.62 2.91 2.09 8.37 2.08 0.75 0 1.5-0.05 0.75-0.05 1.5-0.15 0.74-0.1 1.48-0.26 0.74-0.15 1.46-0.36 0.3-0.08 0.6-0.18 0.3-0.09 0.59-0.19 0.3-0.11 0.59-0.22 0.29-0.11 0.58-0.23 0.83-0.33 1.71-0.31 0.89 0.02 1.7 0.38 0.81 0.36 1.42 1.01 0.61 0.65 0.92 1.48 0.31 0.83 0.28 1.71-0.03 0.88-0.4 1.68-0.37 0.81-1.02 1.4-0.65 0.6-1.48 0.9-0.53 0.19-1.07 0.36-0.53 0.17-1.07 0.32-0.54 0.16-1.09 0.3-0.54 0.14-1.09 0.26-1.09 0.24-2.19 0.42-1.1 0.19-2.21 0.31-1.11 0.11-2.23 0.17-1.11 0.06-2.23 0.05-8.76 0-14.23-4.71-1.35-1.16-2.41-2.59-1.06-1.43-1.77-3.06-0.71-1.63-1.04-3.37-0.33-1.75-0.26-3.53-0.04-1.57 0.27-3.11 0.31-1.54 0.96-2.97 0.65-1.42 1.61-2.67 0.95-1.25 2.16-2.25 5-4.27 13.5-4.72v-5.9h-17.05q-0.84 0-1.61-0.32-0.77-0.32-1.36-0.91-0.59-0.59-0.91-1.36-0.32-0.77-0.32-1.61 0-0.83 0.32-1.6 0.32-0.77 0.91-1.36 0.6-0.59 1.37-0.91 0.77-0.32 1.6-0.32h38v8.39h-10.71z"/>
		<path class="s0" d="m400.75 197.57h-7.17v33.81q0 1.01-0.39 1.95-0.39 0.94-1.1 1.66-0.72 0.71-1.66 1.1-0.94 0.39-1.95 0.39-1.02 0-1.95-0.39-0.94-0.38-1.66-1.1-0.72-0.72-1.11-1.66-0.39-0.93-0.39-1.95v-33.81h-6.09v-8.39h23.47z"/>
		<path class="s0" d="m413.89 222.3q-1.13-0.31-2.21-0.75-1.08-0.45-2.09-1.04-1.01-0.58-1.94-1.29-0.93-0.71-1.76-1.53-0.73-0.65-1.31-1.43-0.58-0.78-0.99-1.66-0.41-0.88-0.64-1.82-0.23-0.95-0.27-1.92-0.02-0.65 0.07-1.29 0.08-0.65 0.27-1.27 0.19-0.62 0.47-1.2 0.29-0.59 0.66-1.12 0.39-0.53 0.86-0.99 0.46-0.46 0.99-0.85 0.53-0.4 1.1-0.71 0.58-0.31 1.2-0.53 2.7-1.06 8.45-1.06h5.13v-4.27h-22.21v-8.39h40.25v8.39h-7.83v11.77h-15.09q-0.35-0.01-0.7-0.01-0.35 0.01-0.71 0.03-0.35 0.03-0.7 0.07-0.34 0.05-0.69 0.11-0.16 0.04-0.31 0.1-0.15 0.06-0.3 0.14-0.14 0.07-0.27 0.17-0.13 0.1-0.25 0.21-0.1 0.1-0.18 0.21-0.08 0.12-0.13 0.25-0.05 0.13-0.08 0.26-0.02 0.14-0.02 0.28 0 1.93 2.45 3.27 0.88-0.28 1.78-0.5 0.9-0.21 1.82-0.35 0.91-0.14 1.83-0.21 0.92-0.07 1.85-0.06 6.19 0 9.95 3.16 0.92 0.76 1.64 1.71 0.72 0.94 1.21 2.03 0.48 1.08 0.71 2.25 0.23 1.17 0.19 2.36 0.01 0.94-0.17 1.87-0.17 0.93-0.53 1.8-0.36 0.87-0.88 1.66-0.52 0.78-1.19 1.45-0.8 0.78-1.7 1.43-0.91 0.66-1.9 1.17-0.99 0.5-2.05 0.86-1.06 0.35-2.16 0.54 2.64 1.11 5.58 2.11 0.77 0.26 1.36 0.81 0.6 0.55 0.92 1.29 0.32 0.75 0.3 1.56-0.02 0.81-0.36 1.54-0.32 0.68-0.87 1.19-0.55 0.5-1.25 0.76-0.7 0.26-1.45 0.23-0.75-0.03-1.43-0.34-1.91-0.87-3.78-1.82-1.86-0.96-3.69-2-1.82-1.03-3.59-2.15-1.78-1.12-3.5-2.32-5.16-0.3-7.38-1.8-0.55-0.37-0.98-0.87-0.44-0.5-0.73-1.09-0.3-0.6-0.43-1.25-0.13-0.65-0.09-1.31-0.02-0.5 0.06-0.98 0.08-0.49 0.26-0.96 0.18-0.46 0.45-0.87 0.27-0.42 0.62-0.77 0.33-0.33 0.71-0.58 0.39-0.26 0.81-0.43 0.43-0.17 0.88-0.26 0.46-0.09 0.92-0.08 3.82 0 7.61 3.49h0.49q0.85 0.05 1.7 0 0.85-0.06 1.68-0.21 0.84-0.16 1.65-0.41 0.81-0.26 1.59-0.61 0.49-0.21 0.9-0.55 0.42-0.35 0.72-0.79 0.29-0.44 0.46-0.95 0.16-0.51 0.17-1.05 0-3.2-5.2-3.19-0.86 0.01-1.72 0.1-0.86 0.09-1.71 0.26-0.85 0.17-1.67 0.42-0.83 0.25-1.63 0.58z"/>
		<path class="s0" d="m502.25 218.77h-8.95q-9.29 0-13.52-2.12-0.24 0.14-0.49 0.27-0.25 0.13-0.5 0.26-0.25 0.12-0.5 0.24-0.25 0.12-0.51 0.23 1.24 1.39 2.52 2.74 1.29 1.35 2.62 2.66 1.33 1.3 2.71 2.56 1.38 1.25 2.8 2.46 0.7 0.61 1.1 1.45 0.4 0.84 0.44 1.77 0.03 0.92-0.3 1.79-0.34 0.87-0.99 1.53-0.62 0.63-1.43 0.98-0.81 0.35-1.7 0.37-0.88 0.01-1.7-0.3-0.83-0.32-1.47-0.93-5-4.68-8.59-8.4-0.9-0.89-1.76-1.8-0.87-0.92-1.71-1.86-0.85-0.94-1.66-1.9-0.81-0.96-1.6-1.95-0.39-0.48-0.74-0.98-0.35-0.51-0.67-1.03-0.31-0.53-0.59-1.08-0.28-0.54-0.52-1.11-0.13-0.36-0.23-0.73-0.1-0.37-0.17-0.75-0.07-0.37-0.1-0.76-0.04-0.38-0.04-0.76-0.02-0.57 0.08-1.12 0.09-0.56 0.29-1.09 0.21-0.53 0.51-1.01 0.31-0.47 0.7-0.88 0.45-0.42 0.97-0.74 0.52-0.32 1.1-0.53 0.57-0.21 1.18-0.3 0.61-0.09 1.22-0.05 0.83-0.01 1.64 0.14 0.82 0.15 1.59 0.45 0.77 0.3 1.47 0.74 0.7 0.44 1.3 1.01 0.4-0.76 0.69-1.57 0.3-0.8 0.49-1.64 0.19-0.83 0.28-1.69 0.08-0.85 0.06-1.71 0-0.52-0.03-1.03-0.04-0.52-0.11-1.03-0.07-0.51-0.17-1.02-0.1-0.5-0.24-1h-15.32v-8.39h53.73q0.83 0 1.6 0.32 0.77 0.32 1.36 0.91 0.59 0.59 0.91 1.36 0.32 0.77 0.32 1.6 0 0.83-0.32 1.61-0.32 0.77-0.9 1.36-0.59 0.59-1.36 0.91-0.78 0.32-1.61 0.32h-3v33.81q0 1.02-0.39 1.95-0.39 0.94-1.11 1.66-0.72 0.72-1.66 1.1-0.93 0.39-1.95 0.39-1.01 0-1.95-0.39-0.94-0.39-1.66-1.1-0.71-0.72-1.1-1.66-0.39-0.94-0.39-1.95zm-15.19-21.2q0.19 0.7 0.34 1.41 0.14 0.71 0.23 1.42 0.1 0.72 0.14 1.44 0.04 0.73 0.03 1.45 0.01 0.91-0.08 1.81-0.09 0.9-0.29 1.78-0.19 0.89-0.49 1.74-0.3 0.86-0.7 1.67 1 0.11 4.53 0.11h11.48v-12.83z"/>
		<path class="s0" d="m468.08 211.31h-10.56v-13.74h10.56v-8.39h-29.24v8.39h8.51v13.74h-0.75q-0.53-0.04-1.06 0.02-0.53 0.05-1.04 0.2-0.51 0.14-0.99 0.37-0.48 0.23-0.91 0.54-0.36 0.34-0.63 0.75-0.27 0.41-0.44 0.87-0.18 0.46-0.25 0.95-0.06 0.49-0.02 0.98 0.04 0.64 0.17 1.27 0.14 0.64 0.36 1.24 0.23 0.6 0.54 1.17 0.32 0.56 0.71 1.07 0.45 0.65 0.95 1.26 0.51 0.6 1.07 1.16 0.56 0.56 1.16 1.07 0.61 0.5 1.26 0.95 0.51 0.4 1.08 0.72 0.56 0.32 1.17 0.55 0.6 0.24 1.24 0.38 0.63 0.14 1.28 0.18 0.56 0.05 1.11-0.02 0.56-0.08 1.09-0.27 0.52-0.2 0.99-0.5 0.47-0.31 0.86-0.71 0.35-0.49 0.61-1.04 0.25-0.54 0.42-1.13 0.16-0.58 0.22-1.18 0.05-0.6 0.01-1.2v-1.26h10.56z"/>
	</g>
	<path fill-rule="evenodd" class="s1" d="m82.86 165.72c-45.82 0-82.86-37.04-82.86-82.86 0-45.82 37.04-82.86 82.86-82.86 45.82 0 82.86 37.04 82.86 82.86 0 45.82-37.04 82.86-82.86 82.86z"/>
	<path fill-rule="evenodd" class="s1" d="m265.17 165.72c-45.82 0-82.86-37.04-82.86-82.86 0-45.82 37.04-82.86 82.86-82.86 45.82 0 82.86 37.04 82.86 82.86 0 45.82-37.04 82.86-82.86 82.86z"/>
	<path fill-rule="evenodd" class="s1" d="m447.47 165.72c-45.82 0-82.86-37.04-82.86-82.86 0-45.82 37.04-82.86 82.86-82.86 45.82 0 82.86 37.04 82.86 82.86 0 45.82-37.04 82.86-82.86 82.86z"/>
	<path class="s0" d="m103.87 87.17c0 22.85-11.48 31.56-42 31.56v-16.39c19 0 24.59-4.1 24.59-15.17v-24.08h-17.33v-16.09h34.74z"/>
	<path class="s0" d="m274.6 47c17.43 0 25.83 22.65 12.1 32.38 7.58 3.9 10.65 10.15 10.65 16.19 0 11.58-7.89 23.16-23 23.16h-33v-71.73zm-15.88 25.92h13.22c6.05 0 5.84-10 0.21-10h-13.43zm0 29.21h15.68c7.38 0 7.38-13 0-13h-15.68z"/>
	<path class="s0" d="m438.76 118.73v-55.34h-19.37v-16.39h56.16v16.39h-19.27v55.34z"/>
</svg>