<svg id="Layer_1" data-name="Layer 1" xmlns="http://www.w3.org/2000/svg" viewBox="0 0 530.33 245.04"><defs><style>.cls-1{fill:#ef412f;}.cls-2{fill:#fff;}</style></defs><path d="M56.49,211.31H50c-2.59,0-4.13,0-4.6-.11q4.15,4.45,4.16,9.46a10.2,10.2,0,0,1-3.6,8.21,14.05,14.05,0,0,1-9.4,3,19,19,0,0,1-14.44-6.25,44.7,44.7,0,0,1-8.22-13.84,4.67,4.67,0,0,1,2.69-6.13h0a4.65,4.65,0,0,1,5.94,2.65,43.47,43.47,0,0,0,5.35,10.28q3.56,4.73,7.72,4.72a4,4,0,0,0,2.82-1,3.6,3.6,0,0,0,1-2.8q0-5.21-7.31-9.54l3.23-7.13H56.49v-5.35H14.9a4.2,4.2,0,0,1-4.19-4.2h0a4.2,4.2,0,0,1,4.19-4.19h59v8.39H66.7v33.81a5.1,5.1,0,0,1-5.11,5.1h0a5.1,5.1,0,0,1-5.1-5.1Z"/><path d="M103.53,216.36H91.46v2a6.36,6.36,0,0,1-1.24,4.33A4.8,4.8,0,0,1,86.45,224a9.23,9.23,0,0,1-5-1.82,16,16,0,0,1-4.51-4.43A8.8,8.8,0,0,1,75.16,213a4.9,4.9,0,0,1,1.34-3.83,5.89,5.89,0,0,1,4-1.18h23v-10.4H72.79v-8.39h43.89a4.2,4.2,0,0,1,4.19,4.19h0a4.2,4.2,0,0,1-4.19,4.2h-3v33.82a5.08,5.08,0,0,1-5.08,5.09h0a5.09,5.09,0,0,1-5.09-5.09Z"/><path d="M162.31,219.7H149.46v1.19a6.91,6.91,0,0,1-1.3,4.64,5.11,5.11,0,0,1-4,1.48,8.56,8.56,0,0,1-4.71-1.82,17.24,17.24,0,0,1-4.44-4.41,8.63,8.63,0,0,1-1.8-4.79,4.39,4.39,0,0,1,1.34-3.57,6.15,6.15,0,0,1,4-1.11h.78v-7.69q0-4.49-1.23-6.35a4.24,4.24,0,0,0-3.79-1.85,3.58,3.58,0,0,0-2.43.7,2.34,2.34,0,0,0-.79,1.66,2.83,2.83,0,0,0,1.37,2.63,5.75,5.75,0,0,0,1.54.6,3.52,3.52,0,0,1,2.65,3.72h0a3.5,3.5,0,0,1-4.21,3.12,14.4,14.4,0,0,1-6.05-2.71,9.11,9.11,0,0,1-3.4-7.5,8.06,8.06,0,0,1,3.17-6.77,13.57,13.57,0,0,1,8.45-2.43c3.76,0,6.75.64,9,1.93a10.6,10.6,0,0,1,4.62,5,20.91,20.91,0,0,1,1.32,8.13v7.8h12.85V197.57h-3.42a4.2,4.2,0,0,1-4.2-4.2h0a4.2,4.2,0,0,1,4.2-4.19h20.79v8.39h-7.16v33.81a5.1,5.1,0,0,1-5.11,5.1h0a5.1,5.1,0,0,1-5.1-5.1Z"/><path d="M202.07,197.57h-7.16v33.81a5.1,5.1,0,0,1-5.11,5.1h0a5.1,5.1,0,0,1-5.1-5.1V197.57h-6.09v-8.39h23.46Z"/><path d="M230.74,226.94a21.69,21.69,0,0,1-5.2,2.13,24.36,24.36,0,0,1-6.13.69q-7.09,0-11.36-3.64T203.78,216A12.49,12.49,0,0,1,208.24,206q4.45-3.75,11.91-3.75c1.47,0,2.8,0,4,.1a4.22,4.22,0,0,1,3.93,4.61h0a4.22,4.22,0,0,1-4.38,3.84c-.56,0-1.16,0-1.78,0-2.67,0-4.66.47-5.94,1.41a4.61,4.61,0,0,0-1.93,3.94,4.87,4.87,0,0,0,1.61,4,7.15,7.15,0,0,0,4.66,1.34,13.92,13.92,0,0,0,10.44-4.72V197.57H201v-8.39h47.11v8.39H241v33.81a5.1,5.1,0,0,1-5.11,5.1h0a5.1,5.1,0,0,1-5.1-5.1Z"/><path d="M277.78,216.36H265.71v2a6.36,6.36,0,0,1-1.24,4.33A4.8,4.8,0,0,1,260.7,224a9.23,9.23,0,0,1-5-1.82,16,16,0,0,1-4.52-4.43,8.86,8.86,0,0,1-1.76-4.81,4.9,4.9,0,0,1,1.34-3.83,5.89,5.89,0,0,1,4-1.18h23v-10.4H247v-8.39h48.09v8.39H288v33.82a5.09,5.09,0,0,1-5.09,5.09h0a5.08,5.08,0,0,1-5.08-5.09Z"/><path d="M313.31,197.57h-3v33.81a5.1,5.1,0,0,1-5.11,5.1h0a5.1,5.1,0,0,1-5.1-5.1V197.57H294v-8.39h19.27a4.2,4.2,0,0,1,4.2,4.19h0A4.2,4.2,0,0,1,313.31,197.57Z"/><path d="M367.67,211.6h-4.5a29.38,29.38,0,0,0-8.54.91,7.56,7.56,0,0,0-5.28,5.1,7.71,7.71,0,0,0,2.67,8q2.91,2.09,8.37,2.08a21.36,21.36,0,0,0,5.94-.82,20.84,20.84,0,0,0,2.36-.82,4.4,4.4,0,0,1,5.75,2.56h0a4.39,4.39,0,0,1-2.62,5.69,40.23,40.23,0,0,1-4.32,1.24,39.52,39.52,0,0,1-8.86.95q-8.76,0-14.23-4.71a15.72,15.72,0,0,1-5.48-12.55,13.81,13.81,0,0,1,5-11q5-4.27,13.5-4.72v-5.9H340.38a4.2,4.2,0,0,1-4.2-4.2h0a4.2,4.2,0,0,1,4.2-4.19h38v8.39H367.67Z"/><path d="M400.75,197.57h-7.17v33.81a5.1,5.1,0,0,1-5.1,5.1h0a5.1,5.1,0,0,1-5.11-5.1V197.57h-6.09v-8.39h23.47Z"/><path d="M413.89,222.3a18.07,18.07,0,0,1-8-4.61,9.64,9.64,0,0,1-3.21-6.83,8.09,8.09,0,0,1,1.47-4.88,9,9,0,0,1,4.15-3.08c1.8-.71,4.61-1.06,8.45-1.06h5.13v-4.27H399.67v-8.39h40.25v8.39h-7.83v11.77H417a12.83,12.83,0,0,0-2.8.2,2.51,2.51,0,0,0-1.13.62,1.36,1.36,0,0,0-.41,1c0,1.29.82,2.38,2.45,3.27a23.35,23.35,0,0,1,7.28-1.12q6.19,0,9.95,3.16a10.37,10.37,0,0,1,3.75,8.35,9.45,9.45,0,0,1-2.77,6.78,14.72,14.72,0,0,1-7.81,4c1.76.74,3.62,1.45,5.58,2.11a3.78,3.78,0,0,1,2.22,5.2h0a3.78,3.78,0,0,1-5,1.84,93.18,93.18,0,0,1-14.56-8.29q-5.16-.3-7.38-1.8a5.09,5.09,0,0,1-2.23-4.52,4.78,4.78,0,0,1,1.39-3.58,4.62,4.62,0,0,1,3.32-1.35q3.82,0,7.61,3.49h.49a14.09,14.09,0,0,0,6.62-1.23,3.72,3.72,0,0,0,2.25-3.34q0-3.2-5.2-3.19A18.34,18.34,0,0,0,413.89,222.3Z"/><path d="M502.25,218.77H493.3q-9.29,0-13.52-2.12a20.2,20.2,0,0,1-2,1,105.77,105.77,0,0,0,10.65,10.42,4.49,4.49,0,0,1,.25,6.54h0a4.5,4.5,0,0,1-6.3.12q-5-4.68-8.59-8.4a86.23,86.23,0,0,1-6.73-7.51,17.62,17.62,0,0,1-2.52-4.2,9,9,0,0,1-.54-3,5.63,5.63,0,0,1,1.58-4.1,6,6,0,0,1,4.47-1.62,8.59,8.59,0,0,1,6,2.34,13.51,13.51,0,0,0,1.52-6.61,15.47,15.47,0,0,0-.55-4.08H461.7v-8.39h53.73a4.19,4.19,0,0,1,4.19,4.19h0a4.19,4.19,0,0,1-4.19,4.2h-3v33.81a5.1,5.1,0,0,1-5.11,5.1h0a5.1,5.1,0,0,1-5.1-5.1Zm-15.19-21.2a20.33,20.33,0,0,1,.74,5.72,15.4,15.4,0,0,1-1.56,7c.67.07,2.18.11,4.53.11h11.48V197.57Z"/><path d="M468.08,211.31H457.52V197.57h10.56v-8.39H438.84v8.39h8.51v13.74h-.75a6.16,6.16,0,0,0-4,1.13,4.38,4.38,0,0,0-1.34,3.55,8.6,8.6,0,0,0,1.78,4.75,17.35,17.35,0,0,0,4.44,4.44,8.7,8.7,0,0,0,4.77,1.83,5,5,0,0,0,4.05-1.5,7,7,0,0,0,1.26-4.55V219.7h10.56Z"/><circle class="cls-1" cx="82.86" cy="82.86" r="82.86"/><circle class="cls-1" cx="265.17" cy="82.86" r="82.86"/><circle class="cls-1" cx="447.47" cy="82.86" r="82.86"/><path class="cls-2" d="M103.87,87.17c0,22.85-11.48,31.56-42,31.56V102.34c19,0,24.59-4.1,24.59-15.17V63.09H69.13V47h34.74Z"/><path class="cls-2" d="M274.6,47c17.43,0,25.83,22.65,12.1,32.38,7.58,3.9,10.65,10.15,10.65,16.19,0,11.58-7.89,23.16-23,23.16h-33V47ZM258.72,72.92h13.22c6.05,0,5.84-10,.21-10H258.72Zm0,29.21H274.4c7.38,0,7.38-13,0-13H258.72Z"/><path class="cls-2" d="M438.76,118.73V63.39H419.39V47h56.16V63.39H456.28v55.34Z"/></svg>